HIERARCHY
ROOT Hips
{
	OFFSET 0.0000 0.0000 0.0000
	CHANNELS 6 Xposition Yposition Zposition Zrotation Xrotation Yrotation
	JOINT Ab
	{
		OFFSET -0.0000 8.1305 -0.0000
		CHANNELS 3 Zrotation Xrotation Yrotation
		JOINT Chest
		{
			OFFSET -0.0000 26.2902 -0.0000
			CHANNELS 3 Zrotation Xrotation Yrotation
			JOINT Neck
			{
				OFFSET -0.0000 26.2902 0.0000
				CHANNELS 3 Zrotation Xrotation Yrotation
				JOINT Head
				{
					OFFSET -0.0000 10.8167 0.0000
					CHANNELS 3 Zrotation Xrotation Yrotation
					End Site
					{
						OFFSET -0.0000 16.7167 0.0000
					}
				}
			}
			JOINT LeftCollar
			{
				OFFSET -0.0000 26.2902 0.0000
				CHANNELS 3 Zrotation Xrotation Yrotation
				JOINT LeftShoulder
				{
					OFFSET 19.6667 -0.0000 0.0000
					CHANNELS 3 Zrotation Xrotation Yrotation
					JOINT LeftElbow
					{
						OFFSET 27.2190 0.0000 0.0000
						CHANNELS 3 Zrotation Xrotation Yrotation
						JOINT LeftWrist
						{
							OFFSET 30.7431 0.0000 0.0000
							CHANNELS 3 Zrotation Xrotation Yrotation
							End Site
							{
								OFFSET 0.0000 -14.7500 0.0000
							}
						}
					}
				}
			}
			JOINT RightCollar
			{
				OFFSET -0.0000 26.2902 0.0000
				CHANNELS 3 Zrotation Xrotation Yrotation
				JOINT RightShoulder
				{
					OFFSET -19.6667 0.0000 0.0000
					CHANNELS 3 Zrotation Xrotation Yrotation
					JOINT RightElbow
					{
						OFFSET -27.2190 0.0000 0.0000
						CHANNELS 3 Zrotation Xrotation Yrotation
						JOINT RightWrist
						{
							OFFSET -30.7431 0.0000 0.0000
							CHANNELS 3 Zrotation Xrotation Yrotation
							End Site
							{
								OFFSET -0.0000 -14.7500 0.0000
							}
						}
					}
				}
			}
		}
	}
	JOINT LeftHip
	{
		OFFSET 11.8000 0.0000 0.0000
		CHANNELS 3 Zrotation Xrotation Yrotation
		JOINT LeftKnee
		{
			OFFSET -0.0000 -39.7832 0.0000
			CHANNELS 3 Zrotation Xrotation Yrotation
			JOINT LeftAnkle
			{
				OFFSET -0.0000 -41.7317 0.0000
				CHANNELS 3 Zrotation Xrotation Yrotation
				End Site
				{
					OFFSET -0.0000 -4.9167 16.7167
				}
			}
		}
	}
	JOINT RightHip
	{
		OFFSET -11.8000 0.0000 0.0000
		CHANNELS 3 Zrotation Xrotation Yrotation
		JOINT RightKnee
		{
			OFFSET -0.0000 -39.7832 0.0000
			CHANNELS 3 Zrotation Xrotation Yrotation
			JOINT RightAnkle
			{
				OFFSET -0.0000 -41.7317 0.0000
				CHANNELS 3 Zrotation Xrotation Yrotation
				End Site
				{
					OFFSET -0.0000 -4.9167 16.7167
				}
			}
		}
	}
}
MOTION
Frames: 17
Frame Time: 0.010000
-7.6077 93.0229 79.2320 354.8501 346.1436 202.2771 0.4393 349.2991 0.9540 2.3710 11.8821 0.6660 348.1483 352.4942 349.5368 10.0370 9.9086 349.4422 339.6897 357.4836 13.9984 319.9300 57.2072 340.0204 13.0749 354.8407 316.7384 90.4936 356.6988 349.5416 26.7703 356.1751 344.0025 40.4570 41.5549 6.9101 334.1123 351.6602 35.0338 269.9135 355.8643 1.3428 349.4460 352.4317 358.0735 357.5413 6.4903 3.2582 349.9901 349.6183 12.4738 348.7972 348.6705 7.6269 11.0485 13.8093 10.8390 346.6174 346.9518 311.0425 
-7.6187 92.9963 78.8325 354.9196 346.3133 202.2565 0.3868 349.2866 0.9602 2.4400 11.9413 0.6670 348.1418 352.5437 349.4979 10.1176 9.9181 349.3914 339.7187 357.4931 13.9889 319.7974 57.2027 340.2053 12.9771 354.8723 316.8835 90.3264 356.6694 349.3838 26.7614 356.1786 344.0082 40.4428 41.5720 6.9612 334.1017 351.6690 35.0222 269.8708 355.9004 1.3618 349.2425 352.0612 357.9978 357.5288 6.3543 3.4199 350.2644 349.7837 12.2516 349.0515 349.1120 7.8581 11.0318 13.6666 10.9124 346.5702 346.8389 310.8533 
-7.6307 92.9646 78.4306 355.0000 346.4797 202.2226 0.3352 349.2638 0.9825 2.5296 12.0144 0.6848 348.1022 352.4155 349.4630 10.1205 10.1859 349.3486 339.6945 357.4836 13.9993 319.7739 57.1819 340.3618 12.8389 354.9384 316.9450 90.1993 356.6978 349.2452 26.7559 356.1890 343.9798 40.3729 41.6253 7.0886 334.0742 351.6789 34.9833 269.8444 355.9437 1.3038 349.0578 351.7236 357.9220 357.4872 6.2460 3.6592 350.2794 349.8682 11.9053 349.3224 349.4887 7.9018 10.9963 13.6653 11.0621 346.5199 346.5965 310.6234 
-7.6554 92.9277 78.0310 355.0747 346.6588 202.2023 0.3064 349.2578 0.9965 2.5450 12.0732 0.6984 348.1263 352.3911 349.4073 10.1689 10.2939 349.2784 339.7008 357.4929 13.9805 319.6808 56.9819 340.6134 12.5533 355.0956 316.9707 90.1342 356.6933 348.9861 26.7339 356.1727 343.9518 40.4425 41.6762 7.1284 333.9911 351.6767 34.9457 269.8698 355.9457 1.2687 348.8643 351.4294 357.8064 357.4445 6.2526 3.8124 350.6011 349.9311 11.8857 349.5703 349.8642 7.9662 10.9703 13.6969 11.1590 346.5921 346.3500 310.5085 
-7.6775 92.8875 77.6230 355.1532 346.8351 202.1541 0.2297 349.2305 0.9910 2.6444 12.1059 0.6878 348.0185 352.5184 349.3787 10.3603 10.2456 349.2327 339.6817 357.4884 13.9400 319.4456 56.8540 340.9715 12.3542 355.1812 317.0934 89.9583 356.6630 348.6800 26.7075 356.1709 343.9922 40.4996 41.7035 7.0699 333.9859 351.6853 34.9839 269.7974 355.9675 1.1645 348.6983 351.1566 357.6967 357.4326 6.1280 3.9719 350.8638 350.1518 11.8754 349.8202 350.2082 8.0618 10.9944 13.7724 11.1776 346.6286 345.9184 310.3385 
-7.7109 92.8382 77.2214 355.2318 347.0301 202.1278 0.1879 349.2485 0.9823 2.6737 12.1097 0.6797 347.9888 352.5714 349.3513 10.4716 10.2699 349.1887 339.6990 357.4951 13.9239 319.2678 56.8006 341.2505 12.1869 355.2567 317.2301 89.8467 356.6628 348.4467 26.7108 356.1465 343.9866 40.5373 41.7788 7.0406 333.9733 351.6663 35.0026 269.8143 355.9808 1.1790 348.5448 350.9465 357.4481 357.4790 5.8497 3.7891 351.1003 350.3887 11.9981 350.0586 350.5520 8.0468 11.0194 13.9411 11.2131 346.5862 345.6325 310.3066 
-7.7487 92.7794 76.8130 355.3176 347.2502 202.1026 0.1647 349.2110 0.9557 2.6792 12.2439 0.6508 348.0037 352.5458 349.3243 10.5440 10.3098 349.1528 339.7101 357.4959 13.9157 319.1520 56.5591 341.4896 11.9353 355.4070 317.3036 89.6923 356.6737 348.1500 26.7046 356.1750 344.0200 40.6106 41.7182 7.0208 334.0695 351.6863 35.1089 269.8087 356.0041 1.1756 348.4178 350.7699 357.2369 357.4775 5.7510 3.7437 351.0546 350.5241 12.0080 350.2746 350.8427 8.1065 11.1629 14.2178 11.3174 346.4597 345.3831 310.1257 
-7.7881 92.7155 76.4041 355.4013 347.4714 202.0600 0.1143 349.2169 0.9631 2.7064 12.2954 0.6597 347.9664 352.5482 349.2915 10.6659 10.3613 349.1065 339.7075 357.5083 13.9035 319.0344 56.4499 341.7258 11.7124 355.4980 317.4375 89.6325 356.6675 347.8905 26.6760 356.1793 344.0088 40.7029 41.7908 7.0476 334.0608 351.6546 35.0889 269.8342 356.0076 1.1832 348.3110 350.6059 356.9972 357.4560 5.7353 3.8276 350.9107 350.5056 12.0614 350.4995 351.0950 7.9616 11.2444 14.5884 11.5259 346.3263 345.1340 310.0535 
-7.8329 92.6490 75.9940 355.4737 347.6675 201.9948 0.0563 349.2011 0.9646 2.6924 12.3325 0.6675 348.0081 352.5560 349.2612 10.7230 10.4076 349.0625 339.7408 357.4896 13.8929 318.9064 56.3721 341.9462 11.5684 355.5683 317.6246 89.3508 356.6378 347.5668 26.6625 356.1738 343.9846 40.8080 41.8522 7.0288 334.1006 351.6752 35.1185 269.8012 355.9632 1.1822 348.1924 350.4701 356.7500 357.4610 5.7204 4.0109 351.1100 350.4906 11.8360 350.6934 351.2938 7.9192 11.3734 15.0034 11.6469 346.2034 344.8446 309.8722 
-7.8728 92.5673 75.5693 355.5690 347.9066 201.9270 0.0011 349.1978 0.9579 2.7035 12.3795 0.6653 348.0204 352.6008 349.2292 10.8264 10.4058 349.0159 339.7805 357.5105 13.8659 318.7279 56.2993 342.2295 11.3797 355.6478 317.7706 89.1573 356.6325 347.2536 26.6429 356.1823 344.0116 40.9935 41.8188 6.8828 334.2020 351.6897 35.2314 269.8311 355.9966 1.3205 348.1503 350.3855 356.5759 357.4531 5.8004 4.0121 351.1498 350.4318 11.8380 350.9603 351.6171 7.6862 11.3506 15.2967 11.9014 346.1608 344.5180 309.8534 
-7.9083 92.4744 75.1340 355.7139 348.1764 201.9041 359.9704 349.1900 0.9411 2.7352 12.4275 0.6452 348.0567 352.6289 349.2083 10.9040 10.4379 348.9800 339.7596 357.5100 13.8121 318.5777 55.9906 342.5725 11.0674 355.8052 317.8531 88.8860 356.6841 346.8089 26.5640 356.2291 344.0712 41.4090 41.4528 6.6248 334.4128 351.7562 35.4426 269.8983 356.0050 1.6529 348.1967 350.3064 356.3066 357.4527 5.9887 3.6594 350.6833 350.5026 12.2463 351.2695 351.8947 7.5710 11.4220 15.7063 12.0544 346.0950 344.1520 309.7448 
-7.9500 92.3719 74.6979 355.8333 348.4604 201.8253 359.9249 349.2013 0.9400 2.7602 12.4725 0.6448 348.0720 352.6667 349.2106 11.0026 10.4554 348.9681 339.7924 357.5318 13.7952 318.4313 55.9331 342.8064 10.9239 355.8424 318.0650 88.4087 356.5217 346.4842 26.5481 356.2111 344.0625 41.5408 41.5221 6.5392 334.4498 351.7346 35.5101 269.9390 355.9118 1.6644 348.2460 350.3554 356.0908 357.5144 5.9838 4.0271 350.4021 350.7953 11.7611 351.5376 352.1129 7.4603 11.5660 16.2526 12.2640 345.9806 343.7523 309.5988 
-7.9933 92.2593 74.2544 355.9673 348.7565 201.7527 359.8883 349.1965 0.9248 2.7750 12.5296 0.6305 348.1124 352.7319 349.2071 11.0643 10.4697 348.9474 339.8351 357.5425 13.7772 318.3093 55.9038 342.9765 10.8071 355.8846 318.2408 88.6536 356.7238 346.3521 26.5244 356.2171 344.1361 41.9248 41.5677 6.1357 334.3982 351.6642 35.6690 270.1195 355.8977 1.8708 348.3305 350.3767 355.8704 357.5769 6.2679 3.6067 350.5357 350.8453 11.9378 351.8301 352.3455 7.2437 11.6984 16.8528 12.3109 345.8788 343.2416 309.6447 
-8.0346 92.1364 73.8064 356.1110 349.0679 201.6690 359.8441 349.2128 0.9151 2.7915 12.5685 0.6234 348.1605 352.7290 349.2050 11.1179 10.5562 348.9292 339.8614 357.5398 13.7980 318.2448 55.8186 343.1119 10.6494 355.9665 318.5043 88.2876 356.5827 346.0359 26.5001 356.2558 344.1050 42.0714 41.6186 6.0730 334.5435 351.7067 35.7448 270.1848 355.8931 2.0133 348.4793 350.4947 355.7141 357.6281 6.4618 3.4091 350.6714 351.3017 12.1194 352.1372 352.5739 6.9643 11.7855 17.4680 12.5074 345.9398 342.5543 309.6031 
-8.0694 91.9996 73.3459 356.2772 349.4005 201.5920 359.8065 349.2203 0.8961 2.8122 12.5927 0.6016 348.2216 352.8213 349.2234 11.1913 10.5849 348.9253 339.8833 357.5618 13.7528 318.0439 55.6230 343.4401 10.4331 356.0884 318.6140 89.0371 356.7879 346.1713 26.5410 356.2310 344.0544 42.0736 41.7626 6.0601 334.6670 351.7578 35.7697 270.1952 355.8924 2.1956 348.7048 350.7038 355.6383 357.7236 6.7211 3.2998 351.4368 351.9284 11.8541 352.4531 352.7903 6.7373 11.9391 18.1216 12.6263 345.7977 342.1407 309.6366 
-8.1133 91.8563 72.8764 356.4213 349.7371 201.4932 359.7538 349.1696 0.8486 2.7878 12.6988 0.5577 348.4606 352.8297 349.3210 11.0161 10.6327 349.0217 339.8913 357.5365 13.7595 317.9848 55.3578 343.6501 10.2296 356.1870 318.8114 88.3181 356.6397 345.5872 26.5707 356.2329 344.0829 42.1689 41.8972 5.9739 334.8261 351.7932 35.7953 270.2789 355.8528 2.3831 348.9580 350.8608 355.4499 357.7126 7.3695 3.4267 352.4161 352.0543 11.8673 352.7380 352.9899 6.4514 12.0611 18.8825 12.9500 345.6949 341.6438 309.5630 
-8.1551 91.7266 72.5235 356.5986 350.0017 201.4024 359.6692 349.1198 0.8061 2.8208 12.6664 0.5228 348.6059 353.0298 349.3800 11.0274 10.5725 349.0559 339.8687 357.5373 13.7585 317.9119 55.2234 343.8602 10.0688 356.2665 319.0164 88.4521 356.6309 345.6071 26.6221 356.1956 344.0663 42.1607 42.0190 5.9735 334.9584 351.8437 35.7671 270.3344 355.8057 2.4716 349.2589 351.0034 355.3692 357.6514 7.8213 3.5317 353.0500 351.8203 12.3663 353.0229 353.0459 6.1936 12.1695 19.6164 13.2097 345.5932 341.2267 309.5029 
